<svg width="351" height="51" viewBox="0 0 351 51" fill="none" xmlns="http://www.w3.org/2000/svg">
<rect width="351" height="51" rx="4" fill="#4285F4"/>
<path d="M145.114 19.3636H142.381L146.398 31H149.568L153.58 19.3636H150.852L148.034 28.2045H147.926L145.114 19.3636ZM157.912 31.1705C160.071 31.1705 161.526 30.1193 161.866 28.5L159.628 28.3523C159.384 29.017 158.759 29.3636 157.952 29.3636C156.741 29.3636 155.974 28.5625 155.974 27.2614V27.2557H161.918V26.5909C161.918 23.625 160.122 22.1591 157.815 22.1591C155.247 22.1591 153.582 23.983 153.582 26.6761C153.582 29.4432 155.224 31.1705 157.912 31.1705ZM155.974 25.7557C156.026 24.7614 156.781 23.9659 157.855 23.9659C158.906 23.9659 159.634 24.7159 159.639 25.7557H155.974ZM163.497 31H165.918V26.0625C165.918 24.9886 166.702 24.25 167.77 24.25C168.105 24.25 168.565 24.3068 168.793 24.3807V22.233C168.577 22.1818 168.276 22.1477 168.031 22.1477C167.054 22.1477 166.253 22.7159 165.935 23.7955H165.844V22.2727H163.497V31ZM173.747 31H176.168V25.7614C176.168 24.7955 176.781 24.1534 177.588 24.1534C178.384 24.1534 178.918 24.6989 178.918 25.5568V31H181.264V25.6705C181.264 24.767 181.781 24.1534 182.662 24.1534C183.435 24.1534 184.014 24.6364 184.014 25.608V31H186.429V25.1307C186.429 23.2386 185.304 22.1591 183.679 22.1591C182.401 22.1591 181.406 22.8125 181.048 23.8125H180.957C180.679 22.8011 179.787 22.1591 178.588 22.1591C177.412 22.1591 176.52 22.7841 176.156 23.8125H176.054V22.2727H173.747V31ZM190.83 31.1648C192.119 31.1648 192.955 30.6023 193.381 29.7898H193.449V31H195.744V25.1136C195.744 23.0341 193.983 22.1591 192.04 22.1591C189.949 22.1591 188.574 23.1591 188.239 24.75L190.477 24.9318C190.642 24.3523 191.159 23.9261 192.028 23.9261C192.852 23.9261 193.324 24.3409 193.324 25.0568V25.0909C193.324 25.6534 192.727 25.7273 191.21 25.875C189.483 26.0341 187.932 26.6136 187.932 28.5625C187.932 30.2898 189.165 31.1648 190.83 31.1648ZM191.523 29.4943C190.778 29.4943 190.244 29.1477 190.244 28.483C190.244 27.8011 190.807 27.4659 191.659 27.3466C192.188 27.2727 193.051 27.1477 193.341 26.9545V27.8807C193.341 28.7955 192.585 29.4943 191.523 29.4943ZM197.622 31H200.043V22.2727H197.622V31ZM198.838 21.1477C199.56 21.1477 200.151 20.5966 200.151 19.9205C200.151 19.25 199.56 18.6989 198.838 18.6989C198.122 18.6989 197.531 19.25 197.531 19.9205C197.531 20.5966 198.122 21.1477 198.838 21.1477ZM209.243 24.7614C209.027 23.1534 207.732 22.1591 205.527 22.1591C203.294 22.1591 201.822 23.1932 201.828 24.875C201.822 26.1818 202.646 27.0284 204.351 27.3693L205.862 27.6705C206.624 27.8239 206.97 28.1023 206.982 28.5398C206.97 29.0568 206.408 29.4261 205.561 29.4261C204.697 29.4261 204.124 29.0568 203.976 28.3466L201.595 28.4716C201.822 30.142 203.243 31.1705 205.555 31.1705C207.817 31.1705 209.436 30.017 209.442 28.2955C209.436 27.0341 208.612 26.2784 206.919 25.9318L205.339 25.6136C204.527 25.4375 204.226 25.1591 204.232 24.7386C204.226 24.2159 204.817 23.875 205.567 23.875C206.408 23.875 206.908 24.3352 207.027 24.8977L209.243 24.7614Z" fill="white"/>
</svg>
