<svg width="120" height="13" viewBox="0 0 120 13" fill="none" xmlns="http://www.w3.org/2000/svg">
<path d="M0.758523 1.27273V10H2.5483V4.2983H2.62074L4.87926 9.95739H6.09801L8.35653 4.3196H8.42898V10H10.2188V1.27273H7.94318L5.53977 7.13636H5.4375L3.03409 1.27273H0.758523ZM15.9023 7.21307C15.9066 8.09091 15.3058 8.55114 14.6538 8.55114C13.9677 8.55114 13.5245 8.0696 13.5202 7.2983V3.45455H11.7049V7.62216C11.7092 9.15199 12.604 10.0852 13.9208 10.0852C14.9052 10.0852 15.6126 9.57812 15.9066 8.81108H15.9748V10H17.7177V3.45455H15.9023V7.21307ZM24.6158 5.32102C24.4538 4.11506 23.4822 3.36932 21.8288 3.36932C20.1541 3.36932 19.0504 4.14489 19.0547 5.40625C19.0504 6.38636 19.6683 7.02131 20.9467 7.27699L22.0803 7.50284C22.6513 7.6179 22.9112 7.8267 22.9197 8.15483C22.9112 8.54261 22.4893 8.8196 21.8544 8.8196C21.2067 8.8196 20.7763 8.54261 20.6655 8.00994L18.88 8.10369C19.0504 9.35653 20.1158 10.1278 21.8501 10.1278C23.5462 10.1278 24.7607 9.26278 24.7649 7.97159C24.7607 7.02557 24.1428 6.45881 22.8729 6.19886L21.6882 5.96023C21.0788 5.82812 20.853 5.61932 20.8572 5.30398C20.853 4.91193 21.2962 4.65625 21.8587 4.65625C22.4893 4.65625 22.8643 5.00142 22.9538 5.4233L24.6158 5.32102ZM25.908 10H27.7234V3.45455H25.908V10ZM26.82 2.6108C27.3612 2.6108 27.8043 2.19744 27.8043 1.69034C27.8043 1.1875 27.3612 0.774147 26.82 0.774147C26.283 0.774147 25.8398 1.1875 25.8398 1.69034C25.8398 2.19744 26.283 2.6108 26.82 2.6108ZM32.1349 10.1278C33.8778 10.1278 34.973 9.10511 35.0582 7.60085H33.3452C33.2386 8.29972 32.7784 8.69176 32.1562 8.69176C31.3082 8.69176 30.7585 7.98011 30.7585 6.72727C30.7585 5.49148 31.3125 4.78409 32.1562 4.78409C32.821 4.78409 33.2472 5.22301 33.3452 5.875H35.0582C34.9815 4.36222 33.8352 3.36932 32.1264 3.36932C30.1406 3.36932 28.9134 4.74574 28.9134 6.75284C28.9134 8.7429 30.1193 10.1278 32.1349 10.1278ZM39.032 10H40.8771V7.17045H42.4283C44.4354 7.17045 45.603 5.97301 45.603 4.23011C45.603 2.49574 44.4567 1.27273 42.4751 1.27273H39.032V10ZM40.8771 5.69176V2.78125H42.1214C43.1868 2.78125 43.7024 3.3608 43.7024 4.23011C43.7024 5.09517 43.1868 5.69176 42.13 5.69176H40.8771ZM48.5827 1.27273H46.7674V10H48.5827V1.27273ZM51.9034 10.1236C52.8707 10.1236 53.4972 9.7017 53.8168 9.09233H53.8679V10H55.5895V5.58523C55.5895 4.02557 54.2685 3.36932 52.8111 3.36932C51.2429 3.36932 50.2116 4.11932 49.9602 5.3125L51.6392 5.44886C51.7628 5.0142 52.1506 4.6946 52.8026 4.6946C53.4205 4.6946 53.7741 5.00568 53.7741 5.54261V5.56818C53.7741 5.99006 53.3267 6.04545 52.1889 6.15625C50.8935 6.27557 49.7301 6.71023 49.7301 8.17188C49.7301 9.46733 50.6548 10.1236 51.9034 10.1236ZM52.4233 8.87074C51.8651 8.87074 51.4645 8.6108 51.4645 8.11222C51.4645 7.60085 51.8864 7.34943 52.5256 7.25994C52.9219 7.20455 53.5696 7.1108 53.7869 6.96591V7.66051C53.7869 8.34659 53.2202 8.87074 52.4233 8.87074ZM57.8842 12.4545C59.2351 12.4545 59.951 11.7642 60.3217 10.7074L62.8658 3.46307L60.9439 3.45455L59.576 8.26136H59.5078L58.1527 3.45455H56.2436L58.5916 10.1875L58.4851 10.4645C58.2464 11.0781 57.7905 11.108 57.1513 10.9119L56.7422 12.267C57.0021 12.3778 57.424 12.4545 57.8842 12.4545ZM66.555 10.1278C68.1744 10.1278 69.2653 9.33949 69.521 8.125L67.842 8.0142C67.6587 8.51278 67.19 8.77273 66.5849 8.77273C65.6772 8.77273 65.1019 8.17188 65.1019 7.19602V7.19176H69.5593V6.69318C69.5593 4.46875 68.2127 3.36932 66.4826 3.36932C64.5565 3.36932 63.3079 4.73722 63.3079 6.7571C63.3079 8.83239 64.5394 10.1278 66.555 10.1278ZM65.1019 6.06676C65.1403 5.32102 65.707 4.72443 66.5124 4.72443C67.3008 4.72443 67.8462 5.28693 67.8505 6.06676H65.1019ZM70.744 10H72.5593V6.29688C72.5593 5.49148 73.1474 4.9375 73.9485 4.9375C74.1999 4.9375 74.5451 4.98011 74.7156 5.03551V3.42472C74.5536 3.38636 74.3278 3.3608 74.1445 3.3608C73.4116 3.3608 72.8107 3.78693 72.5721 4.59659H72.5039V3.45455H70.744V10ZM83.1957 10.1364C85.6886 10.1364 87.7042 8.12074 87.6957 5.63636C87.6871 3.15199 85.6886 1.13636 83.1957 1.13636C80.7198 1.13636 78.7042 3.15199 78.6957 5.63636C78.6871 8.12074 80.7198 10.1364 83.1957 10.1364ZM83.1957 8.71733C81.4954 8.71733 80.1062 7.33239 80.1147 5.64062C80.119 3.94034 81.5039 2.5554 83.1957 2.5554C84.9002 2.5554 86.2724 3.93182 86.2766 5.64062C86.2852 7.34091 84.9045 8.71733 83.1957 8.71733ZM80.8263 5.63636C80.8263 6.96165 81.9002 8.03977 83.2298 8.03977C84.3931 8.03977 85.3349 7.20455 85.467 6.10085H84.2013C84.1119 6.52699 83.7198 6.82528 83.2298 6.82528C82.5735 6.82528 82.0366 6.28835 82.0366 5.6321C82.0366 4.97159 82.5735 4.44744 83.2298 4.44744C83.7198 4.44744 84.1502 4.74574 84.2354 5.17188H85.5011C85.369 4.06818 84.3931 3.23295 83.2298 3.23295C81.9002 3.23295 80.8263 4.31108 80.8263 5.63636ZM92.1722 10H98.3938V8.49148H94.729V8.43182L96.0032 7.18324C97.7972 5.54688 98.2788 4.72869 98.2788 3.7358C98.2788 2.22301 97.043 1.15341 95.1722 1.15341C93.3398 1.15341 92.0827 2.24858 92.087 3.96165H93.8384C93.8342 3.12642 94.3626 2.61506 95.1594 2.61506C95.9265 2.61506 96.4975 3.09233 96.4975 3.85938C96.4975 4.55398 96.0714 5.03125 95.2788 5.79403L92.1722 8.67045V10ZM103.153 10.1918C105.347 10.1918 106.673 8.52131 106.677 5.64489C106.681 2.78977 105.339 1.15341 103.153 1.15341C100.962 1.15341 99.6328 2.78551 99.6286 5.64489C99.62 8.51278 100.954 10.1875 103.153 10.1918ZM103.153 8.66193C102.151 8.66193 101.504 7.65625 101.508 5.64489C101.512 3.66335 102.156 2.66619 103.153 2.66619C104.146 2.66619 104.793 3.66335 104.793 5.64489C104.798 7.65625 104.15 8.66193 103.153 8.66193ZM107.993 10H114.214V8.49148H110.549V8.43182L111.824 7.18324C113.618 5.54688 114.099 4.72869 114.099 3.7358C114.099 2.22301 112.863 1.15341 110.993 1.15341C109.16 1.15341 107.903 2.24858 107.907 3.96165H109.659C109.654 3.12642 110.183 2.61506 110.98 2.61506C111.747 2.61506 112.318 3.09233 112.318 3.85938C112.318 4.55398 111.892 5.03125 111.099 5.79403L107.993 8.67045V10ZM119.348 1.27273H117.614L115.453 2.64062V4.27699L117.452 3.02415H117.503V10H119.348V1.27273Z" fill="#2F2F2F" fill-opacity="0.5"/>
</svg>
