<svg width="60" height="60" viewBox="0 0 60 60" fill="none" xmlns="http://www.w3.org/2000/svg">
<rect width="60" height="60" rx="30" fill="#47E185"/>
<path d="M33.3597 22.9136C34.0886 23.1042 34.7914 23.3546 35.4609 23.6641C36.7261 22.7018 38.5365 22.7971 39.6922 23.9524C40.6809 24.9411 40.893 26.4087 40.3331 27.6046C40.9452 28.4219 41.4623 29.3178 41.8651 30.2706H41.8744C43.6564 30.2706 45.1003 31.7146 45.1003 33.4965C45.1003 34.9592 44.1308 36.1959 42.7943 36.5889C42.7084 37.3797 42.5439 38.1566 42.3057 38.945C42.1888 39.3335 41.8292 39.5859 41.4407 39.5859L18.8553 39.5908C18.4172 39.5908 18.0503 39.2785 17.9668 38.8664C17.7286 38.0613 17.5714 37.2799 17.4903 36.4744C16.3278 35.9886 15.5105 34.8379 15.5105 33.4965C15.5105 31.8192 16.7924 30.4421 18.4265 30.2849C18.8317 29.3271 19.3484 28.4292 19.9658 27.6071C19.4034 26.4111 19.6156 24.9411 20.6043 23.9524C21.7595 22.7971 23.5728 22.7043 24.8376 23.6665C25.5071 23.3595 26.2099 23.1042 26.9368 22.9136C27.094 21.2795 28.4711 20 30.148 20C31.8253 20 33.2025 21.277 33.3597 22.9136ZM39.0964 28.9867C37.8528 29.749 36.2069 29.5918 35.1298 28.5147C34.2221 27.6071 33.9697 26.2991 34.3675 25.165C33.9338 24.9818 33.481 24.8266 33.0188 24.7004C32.483 25.7416 31.399 26.4518 30.148 26.4518C28.8975 26.4518 27.8135 25.7392 27.2772 24.7004C26.815 24.8266 26.3671 24.9842 25.9314 25.165C26.3292 26.2967 26.0719 27.6095 25.1666 28.5147C24.0896 29.5918 22.4457 29.749 21.2021 28.9867C20.8376 29.5083 20.5184 30.0658 20.2492 30.6473C21.2688 31.1881 21.9623 32.2623 21.9623 33.4965C21.9623 35.0712 20.8327 36.384 19.3415 36.665C19.3916 37.0368 19.4604 37.4061 19.5463 37.7755H40.7501C40.843 37.3846 40.9142 36.9892 40.9643 36.5913C39.6254 36.2004 38.6485 34.9617 38.6485 33.4965C38.6485 32.3625 39.2324 31.3664 40.1161 30.7923C39.8327 30.1562 39.4898 29.5511 39.0964 28.9867Z" fill="white"/>
</svg>
